<?xml version="1.0" standalone="no"?><!DOCTYPE svg PUBLIC "-//W3C//DTD SVG 1.1//EN" "http://www.w3.org/Graphics/SVG/1.1/DTD/svg11.dtd"><svg t="1724690918241" class="icon" viewBox="0 0 1024 1024" version="1.1" xmlns="http://www.w3.org/2000/svg" p-id="1190" xmlns:xlink="http://www.w3.org/1999/xlink" width="200" height="200"><path d="M16.912 7.448h980.716v1006.762H16.912z" fill="#FFCE54" p-id="1191"></path><path d="M0.328 0.328v1023.344h1023.344V0.328H0.328z m980.684 42.66v85.258H42.958V42.988h938.054z m-85.258 127.918h85.258v682.218h-85.258V170.906zM291.486 853.124l71.266-71.268v71.268h-71.266z m113.894-113.896l85.29-85.29v199.186H405.38v-113.896z m127.918-127.918l85.29-85.29v327.104h-85.29V611.31z m127.918-127.918l85.292-85.29v455.022h-85.292V483.392z m127.92-127.918l63.958-63.958v561.61h-63.958V355.474zM231.18 853.124H170.876V792.82L792.79 170.906h60.304v60.304L231.18 853.124zM732.484 170.906l-71.268 71.266V170.906h71.268z m-113.896 113.896l-85.29 85.29V170.906h85.29v113.896z m-127.918 127.918l-85.29 85.29V170.906h85.29V412.72z m-127.918 127.916l-85.29 85.29V170.906h85.29v369.73z m-127.918 127.918l-63.958 63.96V170.906h63.958v497.648zM42.958 170.906h85.29v682.218H42.958V170.906z m0 810.136v-85.29h938.056v85.29H42.958z" fill="#d81e06" p-id="1192"></path><path d="M938.382 106.948c11.774 0 21.332-9.556 21.332-21.33s-9.558-21.33-21.332-21.33-21.328 9.556-21.328 21.33c0 11.772 9.556 21.33 21.328 21.33zM85.586 106.948c11.774 0 21.33-9.556 21.33-21.33S97.36 64.288 85.586 64.288s-21.298 9.556-21.298 21.33c0 11.772 9.524 21.33 21.298 21.33zM85.586 192.206c-11.774 0-21.298 9.556-21.298 21.33s9.526 21.33 21.298 21.33 21.33-9.556 21.33-21.33c0-11.776-9.556-21.33-21.33-21.33zM85.586 789.166c-11.774 0-21.298 9.556-21.298 21.33s9.526 21.298 21.298 21.298 21.33-9.526 21.33-21.298-9.556-21.33-21.33-21.33zM85.586 917.084c-11.774 0-21.298 9.556-21.298 21.33s9.526 21.298 21.298 21.298 21.33-9.526 21.33-21.298-9.556-21.33-21.33-21.33zM938.382 917.084c-11.774 0-21.328 9.556-21.328 21.33s9.554 21.298 21.328 21.298 21.3-9.526 21.3-21.298-9.526-21.33-21.3-21.33zM938.382 234.866c11.774 0 21.3-9.556 21.3-21.33s-9.528-21.33-21.3-21.33-21.328 9.556-21.328 21.33c0 11.772 9.556 21.33 21.328 21.33zM810.464 192.206c-11.774 0-21.328 9.556-21.328 21.33s9.554 21.33 21.328 21.33 21.332-9.556 21.332-21.33c0-11.776-9.558-21.33-21.332-21.33zM213.504 789.166c-11.774 0-21.298 9.556-21.298 21.33s9.526 21.298 21.298 21.298 21.33-9.526 21.33-21.298-9.556-21.33-21.33-21.33zM938.382 789.166c-11.774 0-21.328 9.556-21.328 21.33s9.554 21.298 21.328 21.298 21.3-9.526 21.3-21.298-9.526-21.33-21.3-21.33z" fill="#656D78" p-id="1193"></path></svg>