<?xml version="1.0" standalone="no"?><!DOCTYPE svg PUBLIC "-//W3C//DTD SVG 1.1//EN" "http://www.w3.org/Graphics/SVG/1.1/DTD/svg11.dtd"><svg t="1724691133423" class="icon" viewBox="0 0 1024 1024" version="1.1" xmlns="http://www.w3.org/2000/svg" p-id="902" xmlns:xlink="http://www.w3.org/1999/xlink" width="200" height="200"><path d="M48 144h928v736h-928z" fill="#FFFFFF" p-id="903"></path><path d="M960 160v704H64V160h896m32-32H32v768h960V128z" fill="#777677" p-id="904"></path><path d="M96 192h832v640H96z" fill="#81B532" opacity=".4" p-id="905"></path><path d="M128 800h128l-64-256-64 256z m128 0h128l-64-256-64 256z m384-128h128l-64-256-64 256z m192-256l-64 256h128l-64-256z m-448 64h128l-64-256-64 256z m192-256l-64 256h128l-64-256z" fill="#81B532" p-id="906"></path></svg>