<?xml version="1.0" standalone="no"?><!DOCTYPE svg PUBLIC "-//W3C//DTD SVG 1.1//EN" "http://www.w3.org/Graphics/SVG/1.1/DTD/svg11.dtd"><svg t="1724773580046" class="icon" viewBox="0 0 1024 1024" version="1.1" xmlns="http://www.w3.org/2000/svg" p-id="2367" xmlns:xlink="http://www.w3.org/1999/xlink" width="200" height="200"><path d="M0 0h1024v1024H0V0z" fill="#202425" opacity=".01" p-id="2368"></path><path d="M127.112533 701.5424A34.133333 34.133333 0 0 1 157.627733 682.666667h708.744534a34.133333 34.133333 0 0 1 30.5152 18.875733l102.4 204.8A34.133333 34.133333 0 0 1 968.772267 955.733333H55.227733a34.133333 34.133333 0 0 1-30.5152-49.390933l102.4-204.8z" fill="#FFAA44" p-id="2369"></path><path d="M241.493333 110.7968c11.605333-28.194133 51.541333-28.194133 63.146667 0l187.938133 456.465067A34.133333 34.133333 0 0 1 461.073067 614.4H85.0944a34.133333 34.133333 0 0 1-31.5392-47.104L241.493333 110.762667z" fill="#11AA66" p-id="2370"></path><path d="M238.933333 546.133333a34.133333 34.133333 0 1 1 68.266667 0v238.933334a34.133333 34.133333 0 1 1-68.266667 0v-238.933334zM719.36 110.7968c11.605333-28.194133 51.541333-28.194133 63.146667 0l187.938133 456.465067A34.133333 34.133333 0 0 1 938.939733 614.4H562.961067a34.133333 34.133333 0 0 1-31.5392-47.104l187.938133-456.4992z" fill="#11AA66" p-id="2371"></path><path d="M716.8 546.133333a34.133333 34.133333 0 1 1 68.266667 0v238.933334a34.133333 34.133333 0 1 1-68.266667 0v-238.933334z" fill="#11AA66" p-id="2372"></path></svg>